<svg id="Layer_1" data-name="Layer 1" xmlns="http://www.w3.org/2000/svg" viewBox="0 0 360.23 394.49"><defs><style>.cls-1{font-size:90px;}.cls-1,.cls-2,.cls-4{fill:#0071bc;}.cls-1,.cls-2{font-family:Virgo01, "Virgo 01";}.cls-2{font-size:24px;letter-spacing:-0.1em;}.cls-3{fill:none;stroke:#0071bc;stroke-miterlimit:10;stroke-width:6px;}</style></defs><title>bobs-crs-logo</title><text class="cls-1" transform="matrix(0.82, -0.58, 0.58, 0.82, 65.34, 124.93)">B</text><text class="cls-1" transform="translate(108.57 89.27) rotate(-8.16)">O</text><text class="cls-1" transform="translate(172.55 78.49) rotate(14.79)">B</text><text class="cls-1" transform="translate(228.15 91.17) rotate(33.08)">S</text><text class="cls-1" transform="translate(276.45 122.78) rotate(46.26)"> </text><text x="-667.86" y="-242.99"/><text class="cls-2" transform="translate(18.06 222.89)">Computer repair shop</text><path class="cls-3" d="M1011,476H671c.71-15.51,0-46,0-46h63V379c-16.67-29-30.33-47-50-76,0,0,42-58,151-57,99.43-.9,148,44,168,63l-47,71s-2,12-1,51h55C1010.23,436.28,1008.5,442.63,1011,476Z" transform="translate(-667.86 -242.99)"/><path class="cls-4" d="M910.43,420.58c-4.08.3-6.82.67-9.57.68-38.14,0-76.28-.19-114.42.18-8.87.09-12-3.12-11.78-11.7.36-15.53-.1-31.08.17-46.62.2-12.09,3.32-14.95,15.14-15,36,0,72,.22,108.07-.17,9.14-.11,12.72,2.85,12.52,12.12C910.13,379.86,910.43,399.62,910.43,420.58ZM789.07,411H898.23V358.34H789.07Z" transform="translate(-667.86 -242.99)"/><path class="cls-4" d="M753.76,427H934.25c.56,8.41-5.47,8-11.18,8H785.32c-7.41,0-14.89.56-22.22-.24-3.89-.43-7.52-3.22-11.27-4.95Z" transform="translate(-667.86 -242.99)"/></svg>